<?xml version="1.0" encoding="utf-8"?>
<!-- Generator: Adobe Illustrator 28.3.0, SVG Export Plug-In . SVG Version: 6.00 Build 0)  -->
<svg version="1.1" id="Layer_1" xmlns="http://www.w3.org/2000/svg" xmlns:xlink="http://www.w3.org/1999/xlink" x="0px" y="0px"
	 viewBox="0 0 740 132" style="enable-background:new 0 0 740 132;" xml:space="preserve">
<style type="text/css">
	.st0{fill:#FFFFFF;}
	.st1{fill:#009CA6;}
</style>
<path class="st0" d="M85.1,53.2V56h-8.3v6.7h7.4v2.8h-7.4v8h-3.7V53h12C85.1,53,85.1,53.2,85.1,53.2z M93.6,73.7
	c-4.6,0-7.2-2.6-7.2-7.8c0-5,2.6-7.8,7.2-7.8s7.2,2.6,7.2,7.8C101,71.1,98.4,73.7,93.6,73.7z M97.1,66c0-3.3-1.1-5.2-3.5-5.2
	s-3.5,2-3.5,5.2c0,3.3,1.1,5.2,3.5,5.2C96.2,71.3,97.1,69.1,97.1,66z M114.5,73.4l-0.7-2.4c-0.4,1.7-1.8,2.8-4.4,2.8
	c-2,0-3.3-0.7-4.1-1.8c-0.9-1.3-0.9-2.8-0.9-4.6v-8.7h3.5v8.9c0,0.9,0,1.7,0.6,2.4s1.3,1.1,2.4,1.1c2.4,0,2.8-2,2.8-3.3v-9.1h3.5
	v14.8H114.5z M124.3,58.6l0.7,2.6c0.6-1.7,1.8-2.8,4.4-2.8c2.2,0,3.5,0.9,4.3,2c0.9,1.3,0.9,2.8,0.9,4.4v8.7h-3.5v-8.9
	c0-0.9,0-1.7-0.6-2.4c-0.6-0.7-1.1-1.1-2.4-1.1c-2.6,0-3,2-3,3.3v9.1h-3.5V58.7h2.6L124.3,58.6L124.3,58.6z M151.9,52.5v21.1h-2.8
	l-0.6-2.6c-0.4,1.7-2,2.8-4.4,2.8c-4.1,0-6.3-3.1-6.3-7.6c0-4.6,2.2-7.8,6.5-7.8c2.2,0,3.5,0.7,4.1,2.6v-8.5L151.9,52.5L151.9,52.5z
	 M141.5,66c0,3,0.9,5,3.5,5s3.5-2.2,3.5-5c0-3-0.9-5-3.5-5S141.5,63,141.5,66z M160.2,54.3c0,1.1-0.9,2-2.2,2s-2.2-0.9-2.2-2
	s0.9-2,2.2-2S160.2,53.2,160.2,54.3z M159.8,58.6v14.8h-3.5V58.6C156.3,58.6,159.8,58.6,159.8,58.6z M166.9,58.6l0.7,2.6
	c0.6-1.7,1.9-2.8,4.4-2.8c2.2,0,3.5,0.9,4.3,2c0.9,1.3,0.9,2.8,0.9,4.4v8.7h-3.5v-8.9c0-0.9,0-1.7-0.6-2.4c-0.6-0.7-1.1-1.1-2.4-1.1
	c-2.6,0-3,2-3,3.3v9.1h-3.5V58.7h2.6L166.9,58.6L166.9,58.6z M187,67.8c-0.7,0-1.5,0-2-0.2c-0.4,0.2-0.7,0.6-0.7,1.3
	c0,1.1,1.1,1.1,2,1.1h2.6c1.9,0,5.9,0,5.9,4.1c0,3.3-2.6,5-8,5c-4.8,0-6.8-1.3-6.8-3.5c0-2.6,2.8-3,3-3c0,0-1.9-0.7-1.9-2.6
	s1.9-2.6,2.8-2.8c-1.7-0.7-2.6-2.2-2.6-4.1c0-3,2.4-4.8,6.1-4.8c1.9,0,3.3,0.4,4.4,1.3c0.7-1.8,2.2-1.8,3.1-1.8h0.4v3
	c0,0-0.6-0.2-1.1-0.2c-0.7,0-1.1,0.2-1.3,0.2c0.4,0.7,0.7,1.5,0.7,2.4C193.1,66,190.7,67.8,187,67.8L187,67.8z M184.1,72.8
	c0,0-1.1,0.6-1.1,1.8s1.1,1.8,3.7,1.8c2.8,0,4.4-0.7,4.4-2c0-1.5-1.9-1.5-2.8-1.5h-4.3V72.8z M189.4,63c0-1.5-0.9-2.4-2.4-2.4
	s-2.4,0.7-2.4,2.4c0,1.5,0.9,2.4,2.4,2.4S189.4,64.5,189.4,63z M210,53.2l6.5,15.5l6.3-15.5h4.6v20.3h-3.5V57.6l-5.9,14.8h-3.3
	l-5.9-14.8v15.9h-3.3V53.2C205.4,53.2,210,53.2,210,53.2z M243.5,73c0,0-2,0.7-4.6,0.7c-2.8,0-4.6-0.7-5.7-1.8c-1.3-1.3-2-3.3-2-5.7
	c0-4.8,2.4-8,6.8-8c2.4,0,4.3,0.9,5.4,2.6s1.1,3.9,1.1,6.3h-9.6c0,2.6,1.5,4.1,4.3,4.1c2,0,4.3-0.7,4.3-0.7h0.2L243.5,73L243.5,73z
	 M240.7,64.7c0-2.4-0.7-3.9-2.8-3.9s-3,1.5-3.1,3.9H240.7z M250.5,58.6l0.7,2.6c0.4-1.7,1.7-2.8,4.3-2.8s3.9,1.1,4.4,3
	c0.7-2,2-3,4.3-3c2.4,0,3.5,1.1,4.1,2c0.7,1.3,0.7,2.8,0.7,4.4v8.7h-3.5v-8.9c0-0.9,0-1.7-0.4-2.4c-0.4-0.6-1.1-1.1-2.2-1.1
	c-2.4,0-2.8,2-2.8,3.3v9.1h-3.5v-8.9c0-0.9,0-1.7-0.4-2.4c-0.4-0.6-1.1-1.1-2.2-1.1c-2.4,0-2.8,2-2.8,3.3v9.1h-3.5V58.7h2.8
	L250.5,58.6L250.5,58.6z M276.9,52.5v8.7c0.6-1.7,1.9-2.8,4.4-2.8c3.9,0,6.3,2.8,6.3,7.6c0,5-2.4,7.8-6.7,7.8
	c-2.2,0-3.7-0.7-4.4-2.6l-0.9,2.2h-2.2V52.5L276.9,52.5L276.9,52.5z M276.9,66.1c0,3,0.9,5.2,3.5,5.2s3.5-2.2,3.5-5.2s-0.9-5-3.5-5
	C277.9,61,276.9,63,276.9,66.1z M302.7,73c0,0-2,0.7-4.6,0.7c-2.8,0-4.6-0.7-5.7-1.8c-1.3-1.3-2-3.3-2-5.7c0-4.8,2.4-8,6.8-8
	c2.4,0,4.3,0.9,5.4,2.6s1.1,3.9,1.1,6.3H294c0,2.6,1.5,4.1,4.3,4.1c2,0,4.3-0.7,4.3-0.7h0.2C302.7,70.4,302.7,73,302.7,73z
	 M299.9,64.7c0-2.4-0.7-3.9-2.8-3.9s-3,1.5-3.1,3.9H299.9L299.9,64.7z M315.4,61.7c0,0-0.7-0.2-1.5-0.2c-3.1,0-3.1,2.4-3.1,3.5v8.3
	h-3.7V58.6h2.8l0.7,3c0.6-2.4,2.4-3.1,4.6-3.1h0.4v3.3H315.4L315.4,61.7z M319.1,69.8l-2,7.6h-2.6l1.1-7.6H319.1z M335.2,53.2
	l6.5,15.5l6.3-15.5h4.6v20.3h-3.5V57.6l-5.9,14.8H340l-5.9-14.8v15.9H331V53.2L335.2,53.2L335.2,53.2z M357.4,58.9
	c0,0,1.9-0.7,4.8-0.7c2.2,0,4.3,0.4,5.2,1.8c0.7,1.1,0.7,2.6,0.7,4.1v5c0,0.6,0,1.7,1.3,1.7c0.4,0,0.7-0.2,0.7-0.2V73
	c0,0-0.7,0.2-1.9,0.2c-1.9,0-3.1-0.7-3.3-2.6c-0.6,1.7-2.2,2.8-4.4,2.8c-3,0-4.8-1.8-4.8-4.4c0-3.1,2.6-4.8,7.4-4.8h1.5
	c0-1.3,0-1.8-0.4-2.4s-1.1-0.9-2.6-0.9c-2.2,0-4.1,0.7-4.1,0.7h-0.2C357.4,61.5,357.4,58.9,357.4,58.9z M361.7,71
	c1.1,0,2-0.6,2.6-1.5s0.6-2,0.6-2.6v-0.4h-0.7c-1.5,0-4.3,0-4.3,2.4C359.6,70.2,360.4,71,361.7,71z M382,61.7h-0.2
	c0,0-1.9-0.7-3.5-0.7c-1.5,0-2.2,0.6-2.2,1.3c0,2.2,6.7,1.7,6.7,6.7c0,3.1-2.6,4.6-6.1,4.6c-2.6,0-4.3-0.7-4.3-0.7V70h0.2
	c0,0,2.2,0.9,4.1,0.9c1.7,0,2.4-0.7,2.4-1.5c0-2.6-6.7-1.8-6.7-6.7c0-2.8,2-4.4,5.9-4.4c2,0,3.7,0.6,3.7,0.6V61.7L382,61.7z
	 M394.6,61.7h-0.2c0,0-1.9-0.7-3.5-0.7c-1.5,0-2.2,0.6-2.2,1.3c0,2.2,6.7,1.7,6.7,6.7c0,3.1-2.6,4.6-6.1,4.6c-2.6,0-4.3-0.7-4.3-0.7
	V70h0.2c0,0,2.2,0.9,4.1,0.9c1.7,0,2.4-0.7,2.4-1.5c0-2.6-6.7-1.8-6.7-6.7c0-2.8,2-4.4,5.9-4.4c2,0,3.7,0.6,3.7,0.6V61.7L394.6,61.7
	z M422,62.6v10c0,0-2.6,1.1-6.3,1.1c-6.3,0-10.5-3.3-10.5-10.2c0-7.2,4.4-10.5,10.9-10.5c3,0,5.2,0.7,5.2,0.7v2.8h-0.2
	c0,0-2-0.9-4.8-0.9c-4.4,0-7.2,2.4-7.2,7.6s2.8,7.8,6.7,7.8c1.5,0,2.6-0.4,2.6-0.4v-5.2h-3.7v-2.8L422,62.6L422,62.6z M437.5,73
	c0,0-2,0.7-4.6,0.7c-2.8,0-4.6-0.7-5.7-1.8c-1.3-1.3-2-3.3-2-5.7c0-4.8,2.4-8,6.8-8c2.4,0,4.3,0.9,5.4,2.6s1.1,3.9,1.1,6.3h-9.6
	c0,2.6,1.5,4.1,4.3,4.1c2,0,4.3-0.7,4.3-0.7h0.2C437.5,70.4,437.5,73,437.5,73z M434.8,64.7c0-2.4-0.7-3.9-2.8-3.9s-3,1.5-3.1,3.9
	H434.8L434.8,64.7z M444.7,58.6l0.7,2.6c0.6-1.7,1.9-2.8,4.4-2.8c2.2,0,3.5,0.9,4.3,2c0.9,1.3,0.9,2.8,0.9,4.4v8.7h-3.7v-8.9
	c0-0.9,0-1.7-0.6-2.4c-0.6-0.7-1.1-1.1-2.4-1.1c-2.6,0-3,2-3,3.3v9.1H442V58.7h2.8L444.7,58.6L444.7,58.6z M470.6,73
	c0,0-2,0.7-4.6,0.7c-2.8,0-4.6-0.7-5.7-1.8c-1.3-1.3-2-3.3-2-5.7c0-4.8,2.4-8,6.8-8c2.4,0,4.3,0.9,5.4,2.6s1.1,3.9,1.1,6.3h-9.6
	c0,2.6,1.5,4.1,4.3,4.1c2,0,4.3-0.7,4.3-0.7h0.2C470.6,70.4,470.6,73,470.6,73z M467.9,64.7c0-2.4-0.7-3.9-2.8-3.9s-3,1.5-3.1,3.9
	H467.9L467.9,64.7z M483.4,61.7c0,0-0.7-0.2-1.5-0.2c-3.1,0-3.1,2.4-3.1,3.5v8.3h-3.5V58.6h2.8l0.7,3c0.6-2.4,2.4-3.1,4.6-3.1h0.4
	v3.3H483.4L483.4,61.7z M486,58.9c0,0,1.9-0.7,4.8-0.7c2.2,0,4.3,0.4,5.2,1.8c0.7,1.1,0.7,2.6,0.7,4.1v5c0,0.6,0,1.7,1.3,1.7
	c0.4,0,0.7-0.2,0.7-0.2V73c0,0-0.7,0.2-1.9,0.2c-1.9,0-3.1-0.7-3.3-2.6c-0.6,1.7-2.2,2.8-4.4,2.8c-3,0-4.8-1.8-4.8-4.4
	c0-3.1,2.6-4.8,7.4-4.8h1.5c0-1.3,0-1.8-0.4-2.4s-1.1-0.9-2.6-0.9c-2.2,0-4.1,0.7-4.1,0.7H486V58.9L486,58.9z M490.4,71
	c1.1,0,2-0.6,2.6-1.5s0.6-2,0.6-2.6v-0.4h-0.7c-1.5,0-4.3,0-4.3,2.4C488.2,70.2,489,71,490.4,71z M505.2,52.5v21.1h-3.5V52.5
	L505.2,52.5L505.2,52.5z M523.7,53.2c1.5,0,3.3,0,4.8,0.9c1.3,0.7,2.2,2,2.2,4.1c0,4.1-3.5,4.4-3.5,4.4s4.8,0.2,4.8,5
	c0,2.4-1.1,3.7-2.6,4.6c-1.8,1.1-3.9,1.1-5.5,1.1h-6.7V53h6.5L523.7,53.2L523.7,53.2z M520.8,61.5h2.4c0.7,0,1.7,0,2.4-0.4
	c0.7-0.4,1.3-1.1,1.3-2.4s-0.6-2-1.3-2.4s-1.7-0.4-2.4-0.4h-2.4C520.8,56,520.8,61.5,520.8,61.5z M520.8,70.8h3c0.9,0,2,0,3-0.6
	c0.9-0.6,1.5-1.5,1.5-2.8s-0.6-2.2-1.5-2.8c-1.1-0.6-2-0.6-3-0.6h-3C520.8,64.1,520.8,70.8,520.8,70.8z M543.3,61.7
	c0,0-0.7-0.2-1.5-0.2c-3.1,0-3.1,2.4-3.1,3.5v8.3h-3.5V58.6h2.8l0.7,3c0.6-2.4,2.4-3.1,4.6-3.1h0.4v3.3
	C543.7,61.7,543.3,61.7,543.3,61.7z M550,54.3c0,1.1-0.9,2-2.2,2s-2.2-0.9-2.2-2s0.9-2,2.2-2S550,53.2,550,54.3z M549.6,58.6v14.8
	h-3.5V58.6C546.1,58.6,549.6,58.6,549.6,58.6z M559.8,67.8c-0.7,0-1.5,0-2-0.2c-0.4,0.2-0.7,0.6-0.7,1.3c0,1.1,1.1,1.1,2,1.1h2.6
	c1.8,0,5.9,0,5.9,4.1c0,3.3-2.6,5-8,5c-4.8,0-6.8-1.3-6.8-3.5c0-2.6,2.8-3,3-3c0,0-1.8-0.7-1.8-2.6s1.8-2.6,2.8-2.8
	c-1.7-0.7-2.6-2.2-2.6-4.1c0-3,2.4-4.8,6.1-4.8c1.8,0,3.3,0.4,4.4,1.3c0.7-1.8,2.2-1.8,3.1-1.8h0.4v3c0,0-0.6-0.2-1.1-0.2
	c-0.7,0-1.1,0.2-1.3,0.2c0.4,0.7,0.7,1.5,0.7,2.4C565.9,66,563.5,67.8,559.8,67.8L559.8,67.8z M556.7,72.8c0,0-1.1,0.6-1.1,1.8
	s1.1,1.8,3.7,1.8c2.8,0,4.4-0.7,4.4-2c0-1.5-1.8-1.5-2.8-1.5h-4.3V72.8L556.7,72.8z M562.2,63c0-1.5-0.9-2.4-2.4-2.4
	c-1.5,0-2.4,0.7-2.4,2.4c0,1.5,0.9,2.4,2.4,2.4C561.3,65.4,562.2,64.5,562.2,63z M574.1,52.5V61c0.6-1.5,1.7-2.6,4.3-2.6
	c2.4,0,3.7,0.9,4.3,2c0.9,1.3,0.9,2.8,0.9,4.4v8.7H580v-8.9c0-0.9,0-1.7-0.6-2.4c-0.6-0.7-1.1-1.1-2.4-1.1c-2.6,0-3,2-3,3.3v9.1
	h-3.5V52.5L574.1,52.5L574.1,52.5z M587.9,58.9c0,0,1.8-0.7,4.8-0.7c2.2,0,4.3,0.4,5.2,1.8c0.7,1.1,0.7,2.6,0.7,4.1v5
	c0,0.6,0,1.7,1.3,1.7c0.4,0,0.7-0.2,0.7-0.2V73c0,0-0.7,0.2-1.8,0.2c-1.8,0-3.1-0.7-3.3-2.6c-0.6,1.7-2.2,2.8-4.4,2.8
	c-3,0-4.8-1.8-4.8-4.4c0-3.1,2.6-4.8,7.4-4.8h1.5c0-1.3,0-1.8-0.4-2.4s-1.1-0.9-2.6-0.9c-2.2,0-4.1,0.7-4.1,0.7h-0.2L587.9,58.9
	L587.9,58.9z M592.2,71c1.1,0,2-0.6,2.6-1.5c0.6-0.9,0.6-2,0.6-2.6v-0.4h-0.7c-1.5,0-4.3,0-4.3,2.4C590.2,70.2,590.7,71,592.2,71z
	 M606.2,58.6l0.7,2.6c0.4-1.7,1.7-2.8,4.3-2.8s3.9,1.1,4.4,3c0.7-2,2-3,4.3-3c2.4,0,3.5,1.1,4.1,2c0.7,1.3,0.7,2.8,0.7,4.4v8.7h-3.5
	v-8.9c0-0.9,0-1.7-0.4-2.4c-0.4-0.6-1.1-1.1-2.2-1.1c-2.4,0-2.8,2-2.8,3.3v9.1h-3.5v-8.9c0-0.9,0-1.7-0.4-2.4
	c-0.4-0.6-1.1-1.1-2.2-1.1c-2.4,0-2.8,2-2.8,3.3v9.1h-3.5V58.7h2.8V58.6L606.2,58.6z M84,2.3c2.6,0,5.6,0,8,1.5
	c2,1.3,3.7,3.3,3.7,6.8c0,6.7-5.9,7.4-5.9,7.4s8,0.4,8,8.3c0,3.9-1.8,6.3-4.3,7.8C90.5,36,87,36,84.2,36H73.1V2.3H84z M79,16.4h4.3
	c1.3,0,2.8,0,4.1-0.7s2.2-2,2.2-4.1s-0.9-3.3-2.2-4.1s-2.8-0.7-4.1-0.7h-4.1v9.6H79z M79,31.9h4.8c1.5,0,3.3,0,5-0.9
	s2.4-2.4,2.4-4.4s-0.6-3.7-2.2-4.6C87.3,21,85.5,21,84,21h-4.8v10.9C79.2,31.9,79,31.9,79,31.9z M116,16.7c0,0-1.3-0.2-2.6-0.2
	c-5.4,0-5.4,3.9-5.4,5.9v13.9h-5.9v-25h4.4l1.1,4.8c0.9-4.1,3.9-5.2,7.6-5.2h0.6v5.7C115.8,16.7,116,16.7,116,16.7z M126.2,4.3
	c0,2-1.5,3.5-3.5,3.5s-3.5-1.5-3.5-3.5s1.5-3.5,3.5-3.5S126.2,2.5,126.2,4.3z M125.4,11.4v24.8h-5.9V11.4H125.4z M141.5,26.9
	c-1.3,0-2.4,0-3.3-0.4c-0.6,0.4-1.3,0.9-1.3,2c0,1.9,2,1.9,3.3,1.9h4.1c3.1,0,9.8,0,9.8,6.7c0,5.4-4.3,8.3-13.3,8.3
	c-8,0-11.5-2.2-11.5-5.9c0-4.4,4.6-5,4.8-5c-0.2,0-3.1-1.1-3.1-4.3s3.1-4.3,4.6-4.6c-2.8-1.3-4.3-3.7-4.3-6.8c0-4.8,3.9-8,10.2-8
	c3.1,0,5.6,0.7,7.4,2.2c1.1-3.1,3.7-3.1,5.2-3.1h0.6v4.8c0,0-0.9-0.2-2-0.2s-1.7,0.2-2,0.4c0.7,1.1,1.1,2.4,1.1,3.9
	C151.7,23.8,147.6,26.9,141.5,26.9L141.5,26.9z M136.3,35.2c0,0-1.7,0.9-1.7,3c0,2.2,1.9,3.1,6.3,3.1c4.8,0,7.2-1.1,7.2-3.5
	c0-2.6-3.1-2.6-4.4-2.6H136.3z M145.6,18.8c0-2.6-1.5-3.9-4.1-3.9c-2.6,0-4.1,1.3-4.1,3.9s1.5,3.9,4.1,3.9
	C144.1,22.7,145.6,21.4,145.6,18.8z M164.3,1v14.2c0.7-2.6,2.8-4.4,7-4.4c3.9,0,6.1,1.5,7.2,3.3c1.5,2,1.5,4.4,1.5,7.4v14.6h-5.9
	V21.6c0-1.5,0-3-0.7-4.1s-2-1.9-3.9-1.9c-4.4,0-5,3.3-5,5.4v15.2h-5.9V1H164.3z M186.5,12.1c0,0,3.1-1.1,8-1.1c3.7,0,7,0.6,8.7,3.1
	c1.3,1.9,1.3,4.4,1.3,6.7v8.5c0,1.1,0,3,2,3c0.4,0,0.9-0.1,1.3-0.2v4.1c0,0-1.3,0.4-3.1,0.4c-3.1,0-5.2-1.1-5.6-4.4
	c-0.9,3-3.7,4.4-7.2,4.4c-4.8,0-8-3-8-7.4c0-5.4,4.4-8,12.2-8h2.4c0-2,0-3.1-0.7-4.1c-0.7-1.1-1.9-1.7-4.4-1.7
	c-3.5,0-6.7,1.3-6.7,1.3h-0.4v-4.6C186.3,12.1,186.5,12.1,186.5,12.1z M193.7,32.1c1.7,0,3.3-0.7,4.3-2.4c0.7-1.5,0.7-3.3,0.7-4.3
	v-0.6h-1.3c-2.6,0-7,0-7,3.9C190.2,30.8,191.5,32.1,193.7,32.1L193.7,32.1z M216.3,11.4l1.1,4.3c0.7-2.8,2.8-4.8,7.2-4.8
	c4.3,0,6.5,1.9,7.6,5c1.1-3.3,3.5-5,7.2-5c3.9,0,5.9,1.7,7,3.3c1.3,2,1.3,4.4,1.3,7.4v14.6h-5.9V21.6c0-1.5,0-3-0.7-4.1
	c-0.6-0.9-1.7-1.9-3.7-1.9c-4.1,0-4.6,3.3-4.6,5.4v15.2h-5.9V21.6c0-1.5,0-3-0.7-4.1c-0.6-0.9-1.7-1.9-3.7-1.9
	c-4.1,0-4.6,3.3-4.6,5.4v15.2h-5.9V11.4C211.8,11.4,216.3,11.4,216.3,11.4z M265.5,12.1c0,0,3.1-1.1,8-1.1c3.7,0,7,0.6,8.7,3.1
	c1.3,1.9,1.3,4.4,1.3,6.7v8.5c0,1.1,0,3,2,3c0.7,0,1.3-0.2,1.3-0.2v4.1c0,0-1.3,0.4-3.1,0.4c-3.1,0-5.2-1.1-5.5-4.4
	c-0.9,3-3.7,4.4-7.2,4.4c-4.8,0-8-3-8-7.4c0-5.4,4.4-8,12.2-8h2.4c0-2,0-3.1-0.7-4.1c-0.7-1.1-1.9-1.7-4.4-1.7
	c-3.5,0-6.7,1.3-6.7,1.3h-0.4v-4.6L265.5,12.1L265.5,12.1z M272.5,32.1c1.7,0,3.3-0.7,4.3-2.4c0.7-1.5,0.7-3.3,0.7-4.3v-0.6h-1.3
	c-2.6,0-7,0-7,3.9C269.2,30.8,270.3,32.1,272.5,32.1L272.5,32.1z M295.3,11.4l1.1,4.3c0.7-3,3.1-4.8,7.4-4.8c3.9,0,5.9,1.5,7.2,3.3
	c1.5,2,1.5,4.4,1.5,7.4v14.6h-5.9V21.6c0-1.5,0-3-0.7-4.1s-2-1.9-3.9-1.9c-4.4,0-5,3.3-5,5.4v15.2H291V11.4L295.3,11.4L295.3,11.4z
	 M340.4,1v35.2h-4.6l-1.1-4.1c-0.7,2.8-3.3,4.6-7.4,4.6c-6.8,0-10.5-5.2-10.5-12.8s3.7-13.1,10.9-13.1c3.5,0,5.9,1.3,6.8,4.3V1
	H340.4L340.4,1z M323,23.8c0,5,1.7,8.3,5.7,8.3s5.7-3.5,5.7-8.5s-1.5-8.1-5.5-8.1S323,19,323,23.8L323,23.8z M361.9,2.3l6.7,26.3
	l6.8-25.5h6.1l6.8,25.5L395,2.3h5.2l-9.2,33.9h-6.1L378,10.5l-7,25.7h-6.1l-9.2-33.9L361.9,2.3L361.9,2.3z M412.4,36.9
	c-7.6,0-12-4.4-12-13s4.4-13.1,12.2-13.1c7.6,0,12,4.4,12,12.9S420.1,36.9,412.4,36.9z M418.3,23.8c0-5.6-1.9-8.7-5.7-8.7
	c-4.1,0-5.7,3.5-5.7,8.7c0,5.6,1.9,8.7,5.7,8.7C416.6,32.7,418.3,29.1,418.3,23.8z M434,11.4l1.1,4.3c0.7-2.8,2.8-4.8,7.2-4.8
	c4.3,0,6.5,1.9,7.6,5c1.1-3.3,3.5-5,7.2-5c3.9,0,5.9,1.7,7,3.3c1.3,2,1.3,4.4,1.3,7.4v14.6h-5.9V21.6c0-1.5,0-3-0.7-4.1
	c-0.6-0.9-1.7-1.9-3.7-1.9c-4.1,0-4.6,3.3-4.6,5.4v15.2h-5.9V21.6c0-1.5,0-3-0.7-4.1c-0.6-0.9-1.7-1.9-3.7-1.9
	c-4.1,0-4.6,3.3-4.6,5.4v15.2h-5.9V11.4H434L434,11.4z M490.4,35.4c0,0-3.3,1.1-7.8,1.1c-4.8,0-7.6-1.3-9.4-3.1
	c-2.2-2.2-3.3-5.4-3.3-9.4c0-8.1,4.1-13.1,11.5-13.1c4.1,0,7,1.5,8.9,4.3c1.7,2.8,1.7,6.5,1.7,10.4H476c0,4.3,2.4,6.7,7,6.7
	c3.5,0,7-1.3,7-1.3h0.4L490.4,35.4L490.4,35.4z M485.8,21.4c0-4.1-1.3-6.5-4.6-6.5c-3.5,0-4.8,2.4-5.2,6.5H485.8z M501.5,11.4
	l1.1,4.3c0.7-3,3.1-4.8,7.4-4.8c3.9,0,5.9,1.5,7.2,3.3c1.5,2,1.5,4.4,1.5,7.4v14.6h-5.9V21.6c0-1.5,0-3-0.7-4.1s-2-1.9-3.9-1.9
	c-4.4,0-5,3.3-5,5.4v15.2h-5.9V11.4C497.3,11.4,501.5,11.4,501.5,11.4z M523.2,13.2l1.8-12h5.5l-3.3,12H523.2L523.2,13.2z
	 M548.3,16.7H548c0,0-3.1-1.3-5.9-1.3c-2.6,0-3.7,0.9-3.7,2.2c0,3.9,11.1,2.8,11.1,11.3c0,5.2-4.3,7.6-10.2,7.6c-4.3,0-7-1.1-7-1.1
	v-4.8h0.4c0,0,3.7,1.5,6.8,1.5c2.8,0,3.9-1.1,3.9-2.6c0-4.4-11.1-3.1-11.1-11.3c0-4.4,3.5-7.4,9.8-7.4c3.5,0,6.1,0.9,6.1,0.9v5
	H548.3L548.3,16.7z M572.2,2.3v13.9h15V2.3h6.1v33.9h-6.1V20.8h-15v15.4h-6.1V2.3C566.1,2.3,572.2,2.3,572.2,2.3z M610.5,36.9
	c-7.6,0-12-4.4-12-13s4.4-13.1,12.2-13.1c7.6,0,12,4.4,12,12.9S618.3,36.9,610.5,36.9z M616.4,23.8c0-5.6-1.8-8.7-5.7-8.7
	c-4.1,0-5.7,3.5-5.7,8.7c0,5.6,1.8,8.7,5.7,8.7C614.8,32.7,616.4,29.1,616.4,23.8z M642.1,16.7h-0.4c0,0-3.1-1.3-5.9-1.3
	c-2.6,0-3.7,0.9-3.7,2.2c0,3.9,11.1,2.8,11.1,11.3c0,5.2-4.3,7.6-10.2,7.6c-4.3,0-7-1.1-7-1.1v-4.8h0.4c0,0,3.7,1.5,6.8,1.5
	c2.8,0,3.9-1.1,3.9-2.6c0-4.4-11.1-3.1-11.1-11.3c0-4.4,3.5-7.4,9.8-7.4c3.5,0,6.1,0.9,6.1,0.9v5H642.1L642.1,16.7z M648.2,45V11.4
	h4.6l1.1,4.1c0.7-2.8,3.3-4.6,7.4-4.6c6.8,0,10.5,5.2,10.5,12.8s-3.7,13.1-10.9,13.1c-3.5,0-5.9-1.3-6.8-4.3V45L648.2,45L648.2,45z
	 M665.6,23.8c0-5-1.7-8.3-5.7-8.3c-4.3,0-5.7,3.5-5.7,8.5s1.7,8.3,5.7,8.3S665.6,28.8,665.6,23.8z M683.2,4.3c0,2-1.5,3.5-3.5,3.5
	s-3.5-1.5-3.5-3.5s1.5-3.5,3.5-3.5C681.9,0.8,683.2,2.5,683.2,4.3z M682.7,11.4v24.8h-5.9V11.4H682.7z M703.6,36
	c0,0-1.8,0.6-4.4,0.6c-3.5,0-5.9-0.9-7-2.8c-1.1-1.7-1.1-3.7-1.1-6.5V16h-4.6v-4.3h4.4V5.3l5.9-1.7v8.1h6.8V16h-6.8v11.1
	c0,1.7,0,2.8,0.6,3.7c0.6,0.9,1.5,1.1,2.6,1.1c1.7,0,3.3-0.6,3.3-0.6h0.4V36z M708.9,12.1c0,0,3.1-1.1,8-1.1c3.7,0,7,0.6,8.7,3.1
	c1.3,1.9,1.3,4.4,1.3,6.7v8.5c0,1.1,0,3,2,3c0.7,0,1.3-0.2,1.3-0.2v4.1c0,0-1.3,0.4-3.1,0.4c-3.1,0-5.2-1.1-5.5-4.4
	c-0.9,3-3.7,4.4-7.2,4.4c-4.8,0-8-3-8-7.4c0-5.4,4.4-8,12.2-8h2.4c0-2,0-3.1-0.7-4.1c-0.7-1.1-1.8-1.7-4.4-1.7
	c-3.5,0-6.7,1.3-6.7,1.3h-0.4v-4.6C708.7,12.1,708.9,12.1,708.9,12.1z M716.1,32.1c1.7,0,3.3-0.7,4.3-2.4c0.7-1.5,0.7-3.3,0.7-4.3
	v-0.6h-1.3c-2.6,0-7,0-7,3.9C712.6,30.8,713.9,32.1,716.1,32.1z M740,1v35.2h-5.9V1H740z"/>
<path class="st1" d="M7,28.6H0v22.9h7C7,51.5,7,28.6,7,28.6z M15.2,28.6v22.9h7.2V28.6C22.4,28.6,15.2,28.6,15.2,28.6z M30.5,28.6
	v22.9h7V28.6C37.6,28.6,30.5,28.6,30.5,28.6z M0,24.1h52.9v-6.5H0V24.1z M26.5,0.1L0,8.8v6.8l26.5-8.9l26.5,8.9V8.8L26.5,0.1z
	 M52.9,51c-0.2,0.4-2.8,4.8-19.6,4.8H19.6C2.2,56,0.4,58.2,0,58.4V65c0.4-0.2,2.2-2.4,19.6-2.6h13.7c16.8,0,19.4-4.4,19.6-4.8
	C52.9,57.6,52.9,51,52.9,51z M52.9,61.9c-0.2,0.4-2.8,4.8-19.6,4.8H19.6C2.2,66.9,0.4,69.1,0,69.3v6.7c0.4-0.2,2.2-2.4,19.6-2.6
	h13.7c16.8,0,19.4-4.4,19.6-4.8V61.9L52.9,61.9z M45.7,28.6v21.8c5.7-1.3,7-3.3,7-3.7V28.6C52.7,28.6,45.7,28.6,45.7,28.6z"/>
</svg>
